<svg xmlns="http://www.w3.org/2000/svg" width="692" height="683" viewBox="0 0 692 683"><clipPath id="a"><path d="M0 0h692v683H0z"/></clipPath><g clip-path="url(#a)"><path fill="#fefefe" d="M0 0h692.667v683H0z"/><defs><linearGradient id="b" x1="522.923" x2="512.574" y1="1013.947" y2="9.127" gradientUnits="userSpaceOnUse"><stop offset="0" stop-color="#1162cc"/><stop offset="1" stop-color="#2d84ec"/></linearGradient></defs><path fill="url(#b)" d="M500.989 8.845q1.003-.068 2.006-.12c15.905-.807 34.696.062 50.508 1.078a511.9 511.9 0 0 1 309.996 131.399 495.9 495.9 0 0 1 151.131 250.462c7.4 29.121 13.03 62.075 14.5 92.13a497.38 497.38 0 0 1-130.001 364.03 513.8 513.8 0 0 1-271.998 156.036c-31.323 6.61-58.481 9.48-90.495 10.99-135.781 4.46-267.936-44.289-368.313-135.855-97.11-88.944-155.12-212.686-161.376-344.239a490.8 490.8 0 0 1 86.72-302.698c12.149-17.703 22.075-31.352 36.65-47.531a543.3 543.3 0 0 1 67.96-64.639A517.5 517.5 0 0 1 438.311 14.759c20.246-3.175 42.185-4.832 62.678-5.914" transform="scale(.66667 .667)"/><path fill="#fefefe" d="M355.985 34.98c14.17-2.227 30.027 4.924 39.977 14.772 15.295 15.139 14.034 33.546 13.856 53.371a158.96 158.96 0 0 1 61.63 30.751c37.32 30.298 46.616 67.299 55.608 112.785 3.162 19.157 8.452 38.525 14.448 56.7 9.08 27.525 22.774 40.968 45.444 57.716 14.185 10.48 15.243 29.089 16.176 45.13.228 3.908.248 8.422.428 12.383.663 9.937.581 24.436-7.073 32.13-31.241 31.408-107.371 42.614-148.793 45.145q.076-7.939-.146-15.876a342.9 342.9 0 0 0 90.116-18.85c8.644-3.143 46.888-16.247 38.364-31.458-2.036-3.631-10.958-9.042-14.86-11.156-19.974-10.824-42.231-16.95-64.395-21.438a509 509 0 0 0-71.595-10.159 647 647 0 0 0-191.435 13.184c29.211-35.692 56.543-86.116 66.89-131.057 7.662-33.284 2.913-51.044-14.74-78.906 3.324-5.467 6.18-11.223 9.58-16.608 7.804-12.356 17.434-21.075 28.49-30.346-17.536 6.076-35.449 16.19-47.788 30.296-6.636-8.266-10.469-15.205-18.342-23.754 32.092-36.235 86.215-55.53 134.023-51.152-22.566-11.186-56.441-8.118-80.088-.919-3.94-32.582 10.137-57.999 44.225-62.683"/><path fill="#fefefe" d="M200.629 147.233c2.232-.189 4.361.173 6.587.446-4.483 8.685-9.344 20.182-9.779 30.052-6.259 5.696-10.76 10.955-7.934 20.146 6.271 20.392 38.47 14.276 38.357-6.462-.02-3.523-.7-5.814-1.829-9.129a132.3 132.3 0 0 1 10.686-25.704c7.118 4.53 7.785 6.285 11.86 13.575a3724 3724 0 0 1 21.013 38.668c1.441 2.65 3.002 5.347 4.393 8.012 4.182 8.012 12.041 19.032 8.89 28.54-3.506 10.575-8.563 20.769-13.02 30.96l-22.117 51.359a4267 4267 0 0 1-33.576 77.24 1261 1261 0 0 0-7.78 18.274c-4.39 10.379-4.926 14.616-15.263 20.256a24.2 24.2 0 0 1-9.886 1.327c-8.017-.597-23.965-8.464-31.913-11.762A3087 3087 0 0 1 97.206 411.2q-16.05-6.788-32.177-13.391c-12.644-5.211-33.73-10.266-29.234-28.297 2.495-10.006 7.764-19.532 11.95-28.988l18.18-41.843a5603 5603 0 0 1 27.536-62.82c2.651-6.08 16.284-39.942 19.787-42.596 10.638-8.06 30.757-17.628 43.078-24.068 13.56-7.089 29.897-17.183 44.303-21.963"/><path fill="#73dc41" d="M176.039 230.909c4.747-.246 13.952 1.92 16.011 6.579 1.759 3.978-2.082 11.967-3.605 15.969 6.342 4.487 12.781 9.046 17.726 15.257 4.475 5.62 11.203 13.239 2.69 18.975-14.136 9.525-20.746-2.601-29.934-11.35-5.85-5.573-18.162-11.059-25.645-5.54-1.66 1.204-4.234 3.461-4.336 5.744-.353 7.129 8.255 13.36 13.472 17.224 9.57 7.088 18.671 13.02 26.085 22.744 11.328 14.858 6.272 35.839-8.247 46.55-11.428 8.432-25.28 8.115-38.646 6.031-3.434 7.641-4.923 15.91-14.865 13.184-13.722-4.738-11.296-9.704-5.786-21.041-7.998-6.182-15.682-12.067-21.949-20.033-7.855-9.982-10.357-19.62 5.055-22.497 13.35-2.493 17.89 13.288 25.901 20.34 6.556 5.773 22.029 9.905 29.968 4.398 9.633-7.516-5.645-21.871-12.213-25.665-4.08-2.357-7.879-5.302-11.414-7.727-11.644-7.988-20.35-21.418-18.32-35.959 1.185-8.722 6.874-17.336 13.81-22.687 10.1-7.578 23.811-7.35 35.77-5.666 1.565-5.352 3.461-11.817 8.472-14.83"/><path fill="#73dc41" d="M293.037 406.525c9.706-1.367 21.931-1.759 31.82-2.388 34.495-2.193 67.854-.524 102.231 1.423l-.204 11.119q.514 50.838.189 101.68a1496 1496 0 0 1 36.578-.082c4.88.095 10.053.038 14.855.774 4.118.63 5.012 3.304 4.597 6.994 1.657 3.361 1.297 7.068 1.123 10.747-4.54 7.465-24.33 24.5-31.69 31.039a3414 3414 0 0 0-29.328 26.228 3643 3643 0 0 1-33.51 30.676c-7.44 6.847-14.282 13.988-22.432 20.06-5.052 3.765-8.26 5.152-14.04 1.372-6.731-4.36-11.736-10.489-17.568-15.892-7.71-7.083-15.465-14.14-23.202-21.187l-43.555-39.702c-9.71-8.678-19.724-17.26-29.058-26.373-2.242-2.189-3.203-4.77-3.918-7.74.68-2.568 1.326-4.503 2.712-6.823-2.223-4.327-1.144-9.309 4.311-9.74 5.624-.445 11.479-.23 17.137-.228l32.822-.01.13-62.084c.046-11.867.265-24.154.038-35.992-.18-4.615-.085-9.252-.038-13.871"/><path fill="#0e5bba" d="M238.637 528.45c4.75 4.649 11.393 10.057 16.496 14.62a4535 4535 0 0 1 40.57 36.532l37.713 35.022c7.258 6.728 15.03 14.02 22.93 20.044 1.74 1.328 3.009 1.791 5.164 1.277 1.937-.462 3.279-1.813 4.796-3.017 6.656-5.855 13.242-11.854 19.828-17.79l46.805-42.555 32.457-29.202c3.984-3.616 15.286-13.462 17.707-17.336 1.657 3.361 1.297 7.068 1.123 10.747-4.54 7.465-24.33 24.5-31.69 31.039a3414 3414 0 0 0-29.328 26.228 3643 3643 0 0 1-33.51 30.676c-7.44 6.847-14.282 13.988-22.432 20.06-5.052 3.765-8.26 5.152-14.04 1.372-6.731-4.36-11.736-10.489-17.568-15.892-7.71-7.083-15.465-14.14-23.202-21.187l-43.555-39.702c-9.71-8.678-19.724-17.26-29.058-26.373-2.242-2.189-3.203-4.77-3.918-7.74.68-2.568 1.326-4.503 2.712-6.823"/><path fill="#34b636" d="M293.037 406.525c9.706-1.367 21.931-1.759 31.82-2.388 34.495-2.193 67.854-.524 102.231 1.423l-.204 11.119c-17.458-.907-37.004-.806-54.542-.518-11.451.083-22.9.394-34.337.932-9.708.55-19.51 1.61-29.21 2.318-4.995.365-10.748.987-15.72.985-.18-4.615-.085-9.252-.038-13.871"/><path fill="#fefefe" d="M347.406 434.032c6.197-.183 23.08-1.228 27.786 1.832 2.974 4.4 1.884 23.657 1.893 29.893q.143 26.121-.3 52.24c5.566-.097 17.739-.946 22.992.849 1.783.609 2.45 4.357 2.867 6.174-2.414 4.235-7.57 8.96-10.938 12.689-7.912 8.763-17.544 17.623-24.88 26.787-5.11 5.521-8.242 6.417-13.974.508-10.98-11.426-21.787-23.054-32.595-34.646-4.446-4.769-5.218-5.323-2.628-11.45 6.383-1.582 16.903-1.007 23.834-.857-.467-25.351.033-51.107-.067-76.495-.021-5.355.585-6.71 6.01-7.524"/><path fill="#fefefe" d="M297.353 88.404c.837-.06.584-.046 1.435.161 1.574 1.8 1.462 9.216 1.568 12.02-4.04 1.36-8.183 2.752-12.157 4.29-27.585 10.666-54.582 34.133-65.224 62.335a110 110 0 0 0-3.72 11.868c-1.696 6.846-1.386 14.682-10.502 12.962-2.02-1.093-2.404-1.373-4.044-2.941-.18-2.825.198-6.045.563-8.846 5.888-45.112 49.078-82.108 92.08-91.85"/><path fill="#fefefe" d="M146.15 451.059c2.66.1 12.851 5.075 16.202 6.293 4.09 1.741 8.213 3.026 12.46 4.296 6.797 2.033 13.237.797 20.002 1.168 1.483.082 6.537 2.202 8.35 2.836a146 146 0 0 0 12.315 3.724 412 412 0 0 0 58.125 10.316c-.088 5.166-.023 10.526-.03 15.707l-.612.377c-5.96-.14-22.188-2.71-28.795-3.696-27.038-4.034-57.359-10.592-80.523-25.833-6.907-4.545-11.752-9.452-17.495-15.188"/></g></svg>